<mxfile host="Electron" modified="2023-11-16T14:20:49.542Z" agent="Mozilla/5.0 (Windows NT 10.0; Win64; x64) AppleWebKit/537.36 (KHTML, like Gecko) draw.io/22.1.2 Chrome/114.0.5735.289 Electron/25.9.4 Safari/537.36" etag="C_tgZ41yfa5HaFQ7LC24" version="22.1.2" type="device">
  <diagram name="Seite-1" id="NOH5letZRoVpFkiMC0ow">
    <mxGraphModel dx="1687" dy="984" grid="1" gridSize="10" guides="1" tooltips="1" connect="1" arrows="1" fold="1" page="1" pageScale="1" pageWidth="1169" pageHeight="827" math="0" shadow="0">
      <root>
        <mxCell id="0" />
        <mxCell id="1" parent="0" />
        <mxCell id="BTW68RFZrn8EvRwFuk39-18" style="edgeStyle=orthogonalEdgeStyle;rounded=0;orthogonalLoop=1;jettySize=auto;html=1;entryX=0.5;entryY=0;entryDx=0;entryDy=0;" parent="1" target="BTW68RFZrn8EvRwFuk39-3" edge="1">
          <mxGeometry relative="1" as="geometry">
            <mxPoint x="580" y="90" as="sourcePoint" />
          </mxGeometry>
        </mxCell>
        <mxCell id="BTW68RFZrn8EvRwFuk39-19" style="edgeStyle=orthogonalEdgeStyle;rounded=0;orthogonalLoop=1;jettySize=auto;html=1;entryX=0.5;entryY=0;entryDx=0;entryDy=0;" parent="1" target="BTW68RFZrn8EvRwFuk39-2" edge="1">
          <mxGeometry relative="1" as="geometry">
            <mxPoint x="580" y="90" as="sourcePoint" />
          </mxGeometry>
        </mxCell>
        <mxCell id="BTW68RFZrn8EvRwFuk39-69" style="edgeStyle=orthogonalEdgeStyle;rounded=0;orthogonalLoop=1;jettySize=auto;html=1;entryX=0.5;entryY=0;entryDx=0;entryDy=0;" parent="1" target="BTW68RFZrn8EvRwFuk39-4" edge="1">
          <mxGeometry relative="1" as="geometry">
            <mxPoint x="580" y="90" as="sourcePoint" />
          </mxGeometry>
        </mxCell>
        <mxCell id="BTW68RFZrn8EvRwFuk39-1" value="Bersten des&lt;br/&gt;Behälters&amp;nbsp;" style="rounded=0;whiteSpace=wrap;html=1;" parent="1" vertex="1">
          <mxGeometry x="520" width="120" height="40" as="geometry" />
        </mxCell>
        <mxCell id="BTW68RFZrn8EvRwFuk39-16" style="edgeStyle=orthogonalEdgeStyle;rounded=0;orthogonalLoop=1;jettySize=auto;html=1;exitX=0.5;exitY=1;exitDx=0;exitDy=0;entryX=0.5;entryY=0;entryDx=0;entryDy=0;" parent="1" source="BTW68RFZrn8EvRwFuk39-2" target="BTW68RFZrn8EvRwFuk39-13" edge="1">
          <mxGeometry relative="1" as="geometry" />
        </mxCell>
        <mxCell id="BTW68RFZrn8EvRwFuk39-2" value="Überdruck" style="rounded=0;whiteSpace=wrap;html=1;" parent="1" vertex="1">
          <mxGeometry x="520" y="110" width="120" height="40" as="geometry" />
        </mxCell>
        <mxCell id="BTW68RFZrn8EvRwFuk39-9" style="edgeStyle=orthogonalEdgeStyle;rounded=0;orthogonalLoop=1;jettySize=auto;html=1;exitX=0.5;exitY=1;exitDx=0;exitDy=0;entryX=0.5;entryY=0;entryDx=0;entryDy=0;" parent="1" source="BTW68RFZrn8EvRwFuk39-3" target="BTW68RFZrn8EvRwFuk39-5" edge="1">
          <mxGeometry relative="1" as="geometry" />
        </mxCell>
        <mxCell id="BTW68RFZrn8EvRwFuk39-3" value="Prozessfehler" style="rounded=0;whiteSpace=wrap;html=1;" parent="1" vertex="1">
          <mxGeometry x="120" y="110" width="120" height="40" as="geometry" />
        </mxCell>
        <mxCell id="BTW68RFZrn8EvRwFuk39-4" value="Materialfehler" style="rounded=0;whiteSpace=wrap;html=1;" parent="1" vertex="1">
          <mxGeometry x="920" y="110" width="120" height="40" as="geometry" />
        </mxCell>
        <mxCell id="BTW68RFZrn8EvRwFuk39-11" style="edgeStyle=orthogonalEdgeStyle;rounded=0;orthogonalLoop=1;jettySize=auto;html=1;exitX=0.5;exitY=1;exitDx=0;exitDy=0;entryX=0.5;entryY=0;entryDx=0;entryDy=0;" parent="1" source="BTW68RFZrn8EvRwFuk39-5" target="BTW68RFZrn8EvRwFuk39-6" edge="1">
          <mxGeometry relative="1" as="geometry" />
        </mxCell>
        <mxCell id="BTW68RFZrn8EvRwFuk39-12" style="edgeStyle=orthogonalEdgeStyle;rounded=0;orthogonalLoop=1;jettySize=auto;html=1;exitX=0.5;exitY=1;exitDx=0;exitDy=0;" parent="1" source="BTW68RFZrn8EvRwFuk39-5" target="BTW68RFZrn8EvRwFuk39-7" edge="1">
          <mxGeometry relative="1" as="geometry" />
        </mxCell>
        <mxCell id="BTW68RFZrn8EvRwFuk39-5" value="&amp;gt;=1" style="whiteSpace=wrap;html=1;aspect=fixed;" parent="1" vertex="1">
          <mxGeometry x="170" y="180" width="20" height="20" as="geometry" />
        </mxCell>
        <mxCell id="BTW68RFZrn8EvRwFuk39-6" value="Unzureichende&lt;br/&gt;Wartung&lt;br/&gt;" style="rounded=0;whiteSpace=wrap;html=1;" parent="1" vertex="1">
          <mxGeometry x="30" y="240" width="120" height="40" as="geometry" />
        </mxCell>
        <mxCell id="BTW68RFZrn8EvRwFuk39-7" value="Falsche&lt;br/&gt;Bedienung" style="rounded=0;whiteSpace=wrap;html=1;" parent="1" vertex="1">
          <mxGeometry x="210" y="240" width="120" height="40" as="geometry" />
        </mxCell>
        <mxCell id="BTW68RFZrn8EvRwFuk39-21" style="edgeStyle=orthogonalEdgeStyle;rounded=0;orthogonalLoop=1;jettySize=auto;html=1;exitX=0.5;exitY=1;exitDx=0;exitDy=0;entryX=0.5;entryY=0;entryDx=0;entryDy=0;" parent="1" source="BTW68RFZrn8EvRwFuk39-13" target="BTW68RFZrn8EvRwFuk39-17" edge="1">
          <mxGeometry relative="1" as="geometry">
            <Array as="points">
              <mxPoint x="580" y="220" />
              <mxPoint x="400" y="220" />
            </Array>
          </mxGeometry>
        </mxCell>
        <mxCell id="BTW68RFZrn8EvRwFuk39-29" style="edgeStyle=orthogonalEdgeStyle;rounded=0;orthogonalLoop=1;jettySize=auto;html=1;exitX=0.5;exitY=1;exitDx=0;exitDy=0;" parent="1" source="BTW68RFZrn8EvRwFuk39-13" target="BTW68RFZrn8EvRwFuk39-14" edge="1">
          <mxGeometry relative="1" as="geometry" />
        </mxCell>
        <mxCell id="BTW68RFZrn8EvRwFuk39-66" style="edgeStyle=orthogonalEdgeStyle;rounded=0;orthogonalLoop=1;jettySize=auto;html=1;exitX=0.5;exitY=1;exitDx=0;exitDy=0;" parent="1" source="BTW68RFZrn8EvRwFuk39-13" target="BTW68RFZrn8EvRwFuk39-15" edge="1">
          <mxGeometry relative="1" as="geometry">
            <Array as="points">
              <mxPoint x="580" y="220" />
              <mxPoint x="880" y="220" />
            </Array>
          </mxGeometry>
        </mxCell>
        <mxCell id="BTW68RFZrn8EvRwFuk39-13" value="&amp;gt;=1" style="whiteSpace=wrap;html=1;aspect=fixed;" parent="1" vertex="1">
          <mxGeometry x="570" y="180" width="20" height="20" as="geometry" />
        </mxCell>
        <mxCell id="BTW68RFZrn8EvRwFuk39-35" style="edgeStyle=orthogonalEdgeStyle;rounded=0;orthogonalLoop=1;jettySize=auto;html=1;exitX=0.5;exitY=1;exitDx=0;exitDy=0;entryX=0.5;entryY=0;entryDx=0;entryDy=0;" parent="1" source="BTW68RFZrn8EvRwFuk39-14" target="BTW68RFZrn8EvRwFuk39-32" edge="1">
          <mxGeometry relative="1" as="geometry" />
        </mxCell>
        <mxCell id="BTW68RFZrn8EvRwFuk39-14" value="Ausdehnung von&lt;br/&gt;Gasen" style="rounded=0;whiteSpace=wrap;html=1;" parent="1" vertex="1">
          <mxGeometry x="520" y="240" width="120" height="40" as="geometry" />
        </mxCell>
        <mxCell id="BTW68RFZrn8EvRwFuk39-68" style="edgeStyle=orthogonalEdgeStyle;rounded=0;orthogonalLoop=1;jettySize=auto;html=1;exitX=0.5;exitY=1;exitDx=0;exitDy=0;entryX=0.5;entryY=0;entryDx=0;entryDy=0;" parent="1" source="BTW68RFZrn8EvRwFuk39-15" target="BTW68RFZrn8EvRwFuk39-67" edge="1">
          <mxGeometry relative="1" as="geometry" />
        </mxCell>
        <mxCell id="BTW68RFZrn8EvRwFuk39-15" value="Ventil 652 fällt aus&lt;br/&gt;Entlüftung&amp;nbsp;" style="rounded=0;whiteSpace=wrap;html=1;" parent="1" vertex="1">
          <mxGeometry x="820" y="240" width="120" height="40" as="geometry" />
        </mxCell>
        <mxCell id="BTW68RFZrn8EvRwFuk39-25" style="edgeStyle=orthogonalEdgeStyle;rounded=0;orthogonalLoop=1;jettySize=auto;html=1;exitX=0.5;exitY=1;exitDx=0;exitDy=0;entryX=0.5;entryY=0;entryDx=0;entryDy=0;" parent="1" source="BTW68RFZrn8EvRwFuk39-17" target="BTW68RFZrn8EvRwFuk39-23" edge="1">
          <mxGeometry relative="1" as="geometry" />
        </mxCell>
        <mxCell id="BTW68RFZrn8EvRwFuk39-26" style="edgeStyle=orthogonalEdgeStyle;rounded=0;orthogonalLoop=1;jettySize=auto;html=1;exitX=0.5;exitY=1;exitDx=0;exitDy=0;entryX=0.5;entryY=0;entryDx=0;entryDy=0;" parent="1" source="BTW68RFZrn8EvRwFuk39-17" target="BTW68RFZrn8EvRwFuk39-22" edge="1">
          <mxGeometry relative="1" as="geometry" />
        </mxCell>
        <mxCell id="BTW68RFZrn8EvRwFuk39-17" value="&amp;amp;" style="whiteSpace=wrap;html=1;aspect=fixed;" parent="1" vertex="1">
          <mxGeometry x="390" y="250" width="20" height="20" as="geometry" />
        </mxCell>
        <mxCell id="BTW68RFZrn8EvRwFuk39-22" value="Aufheizen" style="rounded=0;whiteSpace=wrap;html=1;" parent="1" vertex="1">
          <mxGeometry x="420" y="310" width="120" height="30" as="geometry" />
        </mxCell>
        <mxCell id="BTW68RFZrn8EvRwFuk39-23" value="Überfüllung" style="rounded=0;whiteSpace=wrap;html=1;" parent="1" vertex="1">
          <mxGeometry x="260" y="310" width="120" height="30" as="geometry" />
        </mxCell>
        <mxCell id="BTW68RFZrn8EvRwFuk39-39" style="edgeStyle=orthogonalEdgeStyle;rounded=0;orthogonalLoop=1;jettySize=auto;html=1;exitX=0.5;exitY=1;exitDx=0;exitDy=0;entryX=0.5;entryY=0;entryDx=0;entryDy=0;" parent="1" source="BTW68RFZrn8EvRwFuk39-32" target="BTW68RFZrn8EvRwFuk39-38" edge="1">
          <mxGeometry relative="1" as="geometry" />
        </mxCell>
        <mxCell id="BTW68RFZrn8EvRwFuk39-40" style="edgeStyle=orthogonalEdgeStyle;rounded=0;orthogonalLoop=1;jettySize=auto;html=1;exitX=0.5;exitY=1;exitDx=0;exitDy=0;entryX=0.5;entryY=0;entryDx=0;entryDy=0;" parent="1" source="BTW68RFZrn8EvRwFuk39-32" target="BTW68RFZrn8EvRwFuk39-36" edge="1">
          <mxGeometry relative="1" as="geometry" />
        </mxCell>
        <mxCell id="BTW68RFZrn8EvRwFuk39-41" style="edgeStyle=orthogonalEdgeStyle;rounded=0;orthogonalLoop=1;jettySize=auto;html=1;exitX=0.5;exitY=1;exitDx=0;exitDy=0;entryX=0.5;entryY=0;entryDx=0;entryDy=0;" parent="1" source="BTW68RFZrn8EvRwFuk39-32" target="BTW68RFZrn8EvRwFuk39-37" edge="1">
          <mxGeometry relative="1" as="geometry" />
        </mxCell>
        <mxCell id="BTW68RFZrn8EvRwFuk39-32" value="&amp;gt;=1" style="whiteSpace=wrap;html=1;aspect=fixed;" parent="1" vertex="1">
          <mxGeometry x="570" y="380" width="20" height="20" as="geometry" />
        </mxCell>
        <mxCell id="BTW68RFZrn8EvRwFuk39-50" style="edgeStyle=orthogonalEdgeStyle;rounded=0;orthogonalLoop=1;jettySize=auto;html=1;exitX=0.5;exitY=1;exitDx=0;exitDy=0;entryX=0.5;entryY=0;entryDx=0;entryDy=0;" parent="1" source="BTW68RFZrn8EvRwFuk39-36" target="BTW68RFZrn8EvRwFuk39-49" edge="1">
          <mxGeometry relative="1" as="geometry" />
        </mxCell>
        <mxCell id="BTW68RFZrn8EvRwFuk39-36" value="Falsche&lt;br/&gt;Stoffzusammensetzung" style="rounded=0;whiteSpace=wrap;html=1;" parent="1" vertex="1">
          <mxGeometry x="870" y="440" width="160" height="30" as="geometry" />
        </mxCell>
        <mxCell id="BTW68RFZrn8EvRwFuk39-43" style="edgeStyle=orthogonalEdgeStyle;rounded=0;orthogonalLoop=1;jettySize=auto;html=1;exitX=0.5;exitY=1;exitDx=0;exitDy=0;entryX=0.5;entryY=0;entryDx=0;entryDy=0;" parent="1" source="BTW68RFZrn8EvRwFuk39-37" target="BTW68RFZrn8EvRwFuk39-42" edge="1">
          <mxGeometry relative="1" as="geometry" />
        </mxCell>
        <mxCell id="BTW68RFZrn8EvRwFuk39-37" value="Ausfall der&lt;br/&gt;Kühlung&lt;br/&gt;" style="rounded=0;whiteSpace=wrap;html=1;" parent="1" vertex="1">
          <mxGeometry x="520" y="440" width="120" height="30" as="geometry" />
        </mxCell>
        <mxCell id="BTW68RFZrn8EvRwFuk39-38" value="Ausfall des&lt;br/&gt;Rührers" style="rounded=0;whiteSpace=wrap;html=1;" parent="1" vertex="1">
          <mxGeometry x="170" y="440" width="120" height="30" as="geometry" />
        </mxCell>
        <mxCell id="BTW68RFZrn8EvRwFuk39-46" style="edgeStyle=orthogonalEdgeStyle;rounded=0;orthogonalLoop=1;jettySize=auto;html=1;exitX=0.5;exitY=1;exitDx=0;exitDy=0;entryX=0.5;entryY=0;entryDx=0;entryDy=0;" parent="1" source="BTW68RFZrn8EvRwFuk39-42" target="BTW68RFZrn8EvRwFuk39-45" edge="1">
          <mxGeometry relative="1" as="geometry" />
        </mxCell>
        <mxCell id="BTW68RFZrn8EvRwFuk39-47" style="edgeStyle=orthogonalEdgeStyle;rounded=0;orthogonalLoop=1;jettySize=auto;html=1;exitX=0.5;exitY=1;exitDx=0;exitDy=0;" parent="1" source="BTW68RFZrn8EvRwFuk39-42" target="BTW68RFZrn8EvRwFuk39-44" edge="1">
          <mxGeometry relative="1" as="geometry" />
        </mxCell>
        <mxCell id="BTW68RFZrn8EvRwFuk39-42" value="&amp;gt;=1" style="whiteSpace=wrap;html=1;aspect=fixed;" parent="1" vertex="1">
          <mxGeometry x="570" y="530" width="20" height="20" as="geometry" />
        </mxCell>
        <mxCell id="BTW68RFZrn8EvRwFuk39-61" style="edgeStyle=orthogonalEdgeStyle;rounded=0;orthogonalLoop=1;jettySize=auto;html=1;exitX=0.5;exitY=1;exitDx=0;exitDy=0;entryX=0.5;entryY=0;entryDx=0;entryDy=0;" parent="1" source="BTW68RFZrn8EvRwFuk39-44" target="BTW68RFZrn8EvRwFuk39-60" edge="1">
          <mxGeometry relative="1" as="geometry" />
        </mxCell>
        <mxCell id="BTW68RFZrn8EvRwFuk39-44" value="Defekte Ventile" style="rounded=0;whiteSpace=wrap;html=1;" parent="1" vertex="1">
          <mxGeometry x="640" y="600" width="120" height="30" as="geometry" />
        </mxCell>
        <mxCell id="BTW68RFZrn8EvRwFuk39-57" style="edgeStyle=orthogonalEdgeStyle;rounded=0;orthogonalLoop=1;jettySize=auto;html=1;exitX=0.5;exitY=1;exitDx=0;exitDy=0;entryX=0.5;entryY=0;entryDx=0;entryDy=0;" parent="1" source="BTW68RFZrn8EvRwFuk39-45" target="BTW68RFZrn8EvRwFuk39-56" edge="1">
          <mxGeometry relative="1" as="geometry" />
        </mxCell>
        <mxCell id="BTW68RFZrn8EvRwFuk39-45" value="Defekte Pumpe&amp;nbsp;" style="rounded=0;whiteSpace=wrap;html=1;" parent="1" vertex="1">
          <mxGeometry x="400" y="600" width="120" height="30" as="geometry" />
        </mxCell>
        <mxCell id="BTW68RFZrn8EvRwFuk39-54" style="edgeStyle=orthogonalEdgeStyle;rounded=0;orthogonalLoop=1;jettySize=auto;html=1;exitX=0.5;exitY=1;exitDx=0;exitDy=0;" parent="1" source="BTW68RFZrn8EvRwFuk39-49" target="BTW68RFZrn8EvRwFuk39-52" edge="1">
          <mxGeometry relative="1" as="geometry" />
        </mxCell>
        <mxCell id="BTW68RFZrn8EvRwFuk39-55" style="edgeStyle=orthogonalEdgeStyle;rounded=0;orthogonalLoop=1;jettySize=auto;html=1;exitX=0.5;exitY=1;exitDx=0;exitDy=0;" parent="1" source="BTW68RFZrn8EvRwFuk39-49" target="BTW68RFZrn8EvRwFuk39-53" edge="1">
          <mxGeometry relative="1" as="geometry" />
        </mxCell>
        <mxCell id="BTW68RFZrn8EvRwFuk39-49" value="&amp;gt;=1" style="whiteSpace=wrap;html=1;aspect=fixed;" parent="1" vertex="1">
          <mxGeometry x="940" y="530" width="20" height="20" as="geometry" />
        </mxCell>
        <mxCell id="BTW68RFZrn8EvRwFuk39-63" style="edgeStyle=orthogonalEdgeStyle;rounded=0;orthogonalLoop=1;jettySize=auto;html=1;exitX=0.5;exitY=1;exitDx=0;exitDy=0;entryX=0.5;entryY=0;entryDx=0;entryDy=0;" parent="1" source="BTW68RFZrn8EvRwFuk39-52" target="BTW68RFZrn8EvRwFuk39-59" edge="1">
          <mxGeometry relative="1" as="geometry" />
        </mxCell>
        <mxCell id="BTW68RFZrn8EvRwFuk39-52" value="Defekte&lt;br/&gt;Messeinrichtung" style="rounded=0;whiteSpace=wrap;html=1;" parent="1" vertex="1">
          <mxGeometry x="800" y="600" width="120" height="30" as="geometry" />
        </mxCell>
        <mxCell id="BTW68RFZrn8EvRwFuk39-65" style="edgeStyle=orthogonalEdgeStyle;rounded=0;orthogonalLoop=1;jettySize=auto;html=1;exitX=0.5;exitY=1;exitDx=0;exitDy=0;" parent="1" source="BTW68RFZrn8EvRwFuk39-53" target="BTW68RFZrn8EvRwFuk39-58" edge="1">
          <mxGeometry relative="1" as="geometry" />
        </mxCell>
        <mxCell id="BTW68RFZrn8EvRwFuk39-53" value="Defekte Ventile" style="rounded=0;whiteSpace=wrap;html=1;" parent="1" vertex="1">
          <mxGeometry x="1000" y="600" width="120" height="30" as="geometry" />
        </mxCell>
        <mxCell id="BTW68RFZrn8EvRwFuk39-56" value="X" style="ellipse;whiteSpace=wrap;html=1;aspect=fixed;" parent="1" vertex="1">
          <mxGeometry x="445" y="660" width="30" height="30" as="geometry" />
        </mxCell>
        <mxCell id="BTW68RFZrn8EvRwFuk39-58" value="X" style="ellipse;whiteSpace=wrap;html=1;aspect=fixed;" parent="1" vertex="1">
          <mxGeometry x="1045" y="660" width="30" height="30" as="geometry" />
        </mxCell>
        <mxCell id="BTW68RFZrn8EvRwFuk39-59" value="X" style="ellipse;whiteSpace=wrap;html=1;aspect=fixed;" parent="1" vertex="1">
          <mxGeometry x="845" y="660" width="30" height="30" as="geometry" />
        </mxCell>
        <mxCell id="BTW68RFZrn8EvRwFuk39-60" value="X" style="ellipse;whiteSpace=wrap;html=1;aspect=fixed;" parent="1" vertex="1">
          <mxGeometry x="685" y="660" width="30" height="30" as="geometry" />
        </mxCell>
        <mxCell id="BTW68RFZrn8EvRwFuk39-67" value="X" style="ellipse;whiteSpace=wrap;html=1;aspect=fixed;" parent="1" vertex="1">
          <mxGeometry x="865" y="310" width="30" height="30" as="geometry" />
        </mxCell>
        <mxCell id="foFGb4EaRCftCRZ8EJYG-1" value="&amp;gt;=1" style="whiteSpace=wrap;html=1;aspect=fixed;" vertex="1" parent="1">
          <mxGeometry x="570" y="60" width="20" height="20" as="geometry" />
        </mxCell>
        <mxCell id="foFGb4EaRCftCRZ8EJYG-2" style="edgeStyle=orthogonalEdgeStyle;rounded=0;orthogonalLoop=1;jettySize=auto;html=1;exitX=0.5;exitY=1;exitDx=0;exitDy=0;" edge="1" parent="1" source="BTW68RFZrn8EvRwFuk39-1">
          <mxGeometry relative="1" as="geometry">
            <mxPoint x="730" y="100" as="sourcePoint" />
            <mxPoint x="580" y="60" as="targetPoint" />
          </mxGeometry>
        </mxCell>
        <mxCell id="foFGb4EaRCftCRZ8EJYG-5" value="Überfüllung" style="rounded=0;whiteSpace=wrap;html=1;" vertex="1" parent="1">
          <mxGeometry x="520" y="720" width="120" height="40" as="geometry" />
        </mxCell>
        <mxCell id="foFGb4EaRCftCRZ8EJYG-6" value="Rücklauf" style="rounded=0;whiteSpace=wrap;html=1;" vertex="1" parent="1">
          <mxGeometry x="320" y="840" width="120" height="40" as="geometry" />
        </mxCell>
        <mxCell id="foFGb4EaRCftCRZ8EJYG-7" value="Überfüllung beim Zufluss" style="rounded=0;whiteSpace=wrap;html=1;" vertex="1" parent="1">
          <mxGeometry x="720" y="840" width="120" height="40" as="geometry" />
        </mxCell>
        <mxCell id="foFGb4EaRCftCRZ8EJYG-9" value="" style="endArrow=classic;html=1;rounded=0;exitX=0.5;exitY=1;exitDx=0;exitDy=0;" edge="1" parent="1" source="BTW68RFZrn8EvRwFuk39-23">
          <mxGeometry width="50" height="50" relative="1" as="geometry">
            <mxPoint x="200" y="450" as="sourcePoint" />
            <mxPoint x="320" y="370" as="targetPoint" />
          </mxGeometry>
        </mxCell>
        <mxCell id="foFGb4EaRCftCRZ8EJYG-11" value="" style="triangle;whiteSpace=wrap;html=1;rotation=-90;" vertex="1" parent="1">
          <mxGeometry x="305" y="370" width="30" height="30" as="geometry" />
        </mxCell>
        <mxCell id="foFGb4EaRCftCRZ8EJYG-13" value="&amp;gt;=1" style="whiteSpace=wrap;html=1;aspect=fixed;" vertex="1" parent="1">
          <mxGeometry x="570" y="780" width="20" height="20" as="geometry" />
        </mxCell>
        <mxCell id="foFGb4EaRCftCRZ8EJYG-14" value="" style="endArrow=classic;html=1;rounded=0;exitX=0.5;exitY=1;exitDx=0;exitDy=0;entryX=0.5;entryY=0;entryDx=0;entryDy=0;" edge="1" parent="1" source="foFGb4EaRCftCRZ8EJYG-5" target="foFGb4EaRCftCRZ8EJYG-13">
          <mxGeometry width="50" height="50" relative="1" as="geometry">
            <mxPoint x="700" y="710" as="sourcePoint" />
            <mxPoint x="750" y="660" as="targetPoint" />
          </mxGeometry>
        </mxCell>
        <mxCell id="foFGb4EaRCftCRZ8EJYG-15" value="" style="endArrow=classic;html=1;rounded=0;exitX=0.5;exitY=1;exitDx=0;exitDy=0;entryX=0.5;entryY=0;entryDx=0;entryDy=0;" edge="1" parent="1" source="foFGb4EaRCftCRZ8EJYG-13" target="foFGb4EaRCftCRZ8EJYG-7">
          <mxGeometry width="50" height="50" relative="1" as="geometry">
            <mxPoint x="700" y="710" as="sourcePoint" />
            <mxPoint x="750" y="660" as="targetPoint" />
            <Array as="points">
              <mxPoint x="580" y="820" />
              <mxPoint x="780" y="820" />
            </Array>
          </mxGeometry>
        </mxCell>
        <mxCell id="foFGb4EaRCftCRZ8EJYG-16" value="" style="endArrow=classic;html=1;rounded=0;entryX=0.5;entryY=0;entryDx=0;entryDy=0;" edge="1" parent="1" target="foFGb4EaRCftCRZ8EJYG-6">
          <mxGeometry width="50" height="50" relative="1" as="geometry">
            <mxPoint x="580" y="820" as="sourcePoint" />
            <mxPoint x="750" y="660" as="targetPoint" />
            <Array as="points">
              <mxPoint x="380" y="820" />
            </Array>
          </mxGeometry>
        </mxCell>
        <mxCell id="foFGb4EaRCftCRZ8EJYG-17" value="" style="endArrow=none;html=1;rounded=0;exitX=0.5;exitY=1;exitDx=0;exitDy=0;" edge="1" parent="1" source="foFGb4EaRCftCRZ8EJYG-1">
          <mxGeometry width="50" height="50" relative="1" as="geometry">
            <mxPoint x="600" y="120" as="sourcePoint" />
            <mxPoint x="580" y="90" as="targetPoint" />
          </mxGeometry>
        </mxCell>
        <mxCell id="foFGb4EaRCftCRZ8EJYG-20" value="Überhitzung einer Pumpe" style="rounded=0;whiteSpace=wrap;html=1;" vertex="1" parent="1">
          <mxGeometry x="520" y="1120" width="120" height="40" as="geometry" />
        </mxCell>
        <mxCell id="foFGb4EaRCftCRZ8EJYG-24" value="Überdruck" style="rounded=0;whiteSpace=wrap;html=1;" vertex="1" parent="1">
          <mxGeometry x="200" y="960" width="120" height="40" as="geometry" />
        </mxCell>
        <mxCell id="foFGb4EaRCftCRZ8EJYG-25" value="Fehlfunktion Ventile zw. Behältern" style="rounded=0;whiteSpace=wrap;html=1;" vertex="1" parent="1">
          <mxGeometry x="440" y="960" width="120" height="40" as="geometry" />
        </mxCell>
        <mxCell id="foFGb4EaRCftCRZ8EJYG-26" value="" style="triangle;whiteSpace=wrap;html=1;rotation=-90;" vertex="1" parent="1">
          <mxGeometry x="245" y="1030" width="30" height="30" as="geometry" />
        </mxCell>
        <mxCell id="foFGb4EaRCftCRZ8EJYG-27" value="X" style="ellipse;whiteSpace=wrap;html=1;aspect=fixed;" vertex="1" parent="1">
          <mxGeometry x="485" y="1030" width="30" height="30" as="geometry" />
        </mxCell>
        <mxCell id="foFGb4EaRCftCRZ8EJYG-28" value="Menschliches Versagen" style="rounded=0;whiteSpace=wrap;html=1;" vertex="1" parent="1">
          <mxGeometry x="600" y="960" width="120" height="40" as="geometry" />
        </mxCell>
        <mxCell id="foFGb4EaRCftCRZ8EJYG-29" value="Ausfall Füllstandsmessung" style="rounded=0;whiteSpace=wrap;html=1;" vertex="1" parent="1">
          <mxGeometry x="840" y="960" width="120" height="40" as="geometry" />
        </mxCell>
        <mxCell id="foFGb4EaRCftCRZ8EJYG-32" style="edgeStyle=orthogonalEdgeStyle;rounded=0;orthogonalLoop=1;jettySize=auto;html=1;exitX=0.5;exitY=1;exitDx=0;exitDy=0;entryX=0.5;entryY=0;entryDx=0;entryDy=0;" edge="1" parent="1">
          <mxGeometry relative="1" as="geometry">
            <mxPoint x="260" y="1000" as="sourcePoint" />
            <mxPoint x="260" y="1030" as="targetPoint" />
          </mxGeometry>
        </mxCell>
        <mxCell id="foFGb4EaRCftCRZ8EJYG-35" style="edgeStyle=orthogonalEdgeStyle;rounded=0;orthogonalLoop=1;jettySize=auto;html=1;exitX=0.5;exitY=1;exitDx=0;exitDy=0;entryX=0.5;entryY=0;entryDx=0;entryDy=0;" edge="1" parent="1">
          <mxGeometry relative="1" as="geometry">
            <mxPoint x="499.71" y="1000" as="sourcePoint" />
            <mxPoint x="499.71" y="1030" as="targetPoint" />
          </mxGeometry>
        </mxCell>
        <mxCell id="foFGb4EaRCftCRZ8EJYG-36" value="" style="endArrow=classic;html=1;rounded=0;exitX=0.5;exitY=1;exitDx=0;exitDy=0;entryX=0.5;entryY=0;entryDx=0;entryDy=0;" edge="1" parent="1" source="foFGb4EaRCftCRZ8EJYG-46" target="foFGb4EaRCftCRZ8EJYG-24">
          <mxGeometry width="50" height="50" relative="1" as="geometry">
            <mxPoint x="440" y="890" as="sourcePoint" />
            <mxPoint x="490" y="840" as="targetPoint" />
            <Array as="points">
              <mxPoint x="380" y="940" />
              <mxPoint x="260" y="940" />
            </Array>
          </mxGeometry>
        </mxCell>
        <mxCell id="foFGb4EaRCftCRZ8EJYG-37" value="" style="endArrow=classic;html=1;rounded=0;entryX=0.5;entryY=0;entryDx=0;entryDy=0;" edge="1" parent="1" target="foFGb4EaRCftCRZ8EJYG-25">
          <mxGeometry width="50" height="50" relative="1" as="geometry">
            <mxPoint x="380" y="940" as="sourcePoint" />
            <mxPoint x="490" y="840" as="targetPoint" />
            <Array as="points">
              <mxPoint x="500" y="940" />
            </Array>
          </mxGeometry>
        </mxCell>
        <mxCell id="foFGb4EaRCftCRZ8EJYG-38" value="" style="endArrow=classic;html=1;rounded=0;entryX=0.5;entryY=0;entryDx=0;entryDy=0;exitX=0.5;exitY=1;exitDx=0;exitDy=0;" edge="1" parent="1" source="foFGb4EaRCftCRZ8EJYG-7" target="foFGb4EaRCftCRZ8EJYG-28">
          <mxGeometry width="50" height="50" relative="1" as="geometry">
            <mxPoint x="600" y="900" as="sourcePoint" />
            <mxPoint x="650" y="850" as="targetPoint" />
            <Array as="points">
              <mxPoint x="780" y="940" />
              <mxPoint x="660" y="940" />
            </Array>
          </mxGeometry>
        </mxCell>
        <mxCell id="foFGb4EaRCftCRZ8EJYG-39" value="" style="endArrow=classic;html=1;rounded=0;entryX=0.5;entryY=0;entryDx=0;entryDy=0;" edge="1" parent="1" target="foFGb4EaRCftCRZ8EJYG-29">
          <mxGeometry width="50" height="50" relative="1" as="geometry">
            <mxPoint x="780" y="940" as="sourcePoint" />
            <mxPoint x="680" y="840" as="targetPoint" />
            <Array as="points">
              <mxPoint x="900" y="940" />
            </Array>
          </mxGeometry>
        </mxCell>
        <mxCell id="foFGb4EaRCftCRZ8EJYG-40" value="Trockenlaufen" style="rounded=0;whiteSpace=wrap;html=1;" vertex="1" parent="1">
          <mxGeometry x="720" y="1239" width="120" height="40" as="geometry" />
        </mxCell>
        <mxCell id="foFGb4EaRCftCRZ8EJYG-41" value="Materialfehler" style="rounded=0;whiteSpace=wrap;html=1;" vertex="1" parent="1">
          <mxGeometry x="520" y="1239" width="120" height="40" as="geometry" />
        </mxCell>
        <mxCell id="foFGb4EaRCftCRZ8EJYG-42" value="Anwenderfehler" style="rounded=0;whiteSpace=wrap;html=1;" vertex="1" parent="1">
          <mxGeometry x="320" y="1239" width="120" height="40" as="geometry" />
        </mxCell>
        <mxCell id="foFGb4EaRCftCRZ8EJYG-43" value="Leck in der Leitung" style="rounded=0;whiteSpace=wrap;html=1;" vertex="1" parent="1">
          <mxGeometry x="520" y="1360" width="120" height="40" as="geometry" />
        </mxCell>
        <mxCell id="foFGb4EaRCftCRZ8EJYG-44" value="Ausfall Durchflussmessung" style="rounded=0;whiteSpace=wrap;html=1;" vertex="1" parent="1">
          <mxGeometry x="720" y="1360" width="120" height="40" as="geometry" />
        </mxCell>
        <mxCell id="foFGb4EaRCftCRZ8EJYG-45" value="&amp;gt;=1" style="whiteSpace=wrap;html=1;aspect=fixed;" vertex="1" parent="1">
          <mxGeometry x="570" y="1181" width="20" height="20" as="geometry" />
        </mxCell>
        <mxCell id="foFGb4EaRCftCRZ8EJYG-47" value="" style="endArrow=classic;html=1;rounded=0;exitX=0.5;exitY=1;exitDx=0;exitDy=0;entryX=0.5;entryY=0;entryDx=0;entryDy=0;" edge="1" parent="1" source="foFGb4EaRCftCRZ8EJYG-6" target="foFGb4EaRCftCRZ8EJYG-46">
          <mxGeometry width="50" height="50" relative="1" as="geometry">
            <mxPoint x="380" y="880" as="sourcePoint" />
            <mxPoint x="260" y="960" as="targetPoint" />
            <Array as="points">
              <mxPoint x="380" y="940" />
            </Array>
          </mxGeometry>
        </mxCell>
        <mxCell id="foFGb4EaRCftCRZ8EJYG-46" value="&amp;amp;" style="whiteSpace=wrap;html=1;aspect=fixed;" vertex="1" parent="1">
          <mxGeometry x="370" y="900" width="20" height="20" as="geometry" />
        </mxCell>
        <mxCell id="foFGb4EaRCftCRZ8EJYG-48" value="&amp;gt;=1" style="whiteSpace=wrap;html=1;aspect=fixed;" vertex="1" parent="1">
          <mxGeometry x="770" y="900" width="20" height="20" as="geometry" />
        </mxCell>
        <mxCell id="foFGb4EaRCftCRZ8EJYG-49" value="Ausfall Füllstandsmessung" style="rounded=0;whiteSpace=wrap;html=1;" vertex="1" parent="1">
          <mxGeometry x="920" y="1360" width="120" height="40" as="geometry" />
        </mxCell>
        <mxCell id="foFGb4EaRCftCRZ8EJYG-50" value="&amp;gt;=1" style="whiteSpace=wrap;html=1;aspect=fixed;" vertex="1" parent="1">
          <mxGeometry x="770" y="1299" width="20" height="20" as="geometry" />
        </mxCell>
        <mxCell id="foFGb4EaRCftCRZ8EJYG-51" value="" style="endArrow=classic;html=1;rounded=0;exitX=0.5;exitY=1;exitDx=0;exitDy=0;entryX=0.5;entryY=0;entryDx=0;entryDy=0;" edge="1" parent="1" source="foFGb4EaRCftCRZ8EJYG-20" target="foFGb4EaRCftCRZ8EJYG-45">
          <mxGeometry width="50" height="50" relative="1" as="geometry">
            <mxPoint x="630" y="1349" as="sourcePoint" />
            <mxPoint x="680" y="1299" as="targetPoint" />
          </mxGeometry>
        </mxCell>
        <mxCell id="foFGb4EaRCftCRZ8EJYG-52" value="" style="endArrow=classic;html=1;rounded=0;exitX=0.5;exitY=1;exitDx=0;exitDy=0;entryX=0.5;entryY=0;entryDx=0;entryDy=0;" edge="1" parent="1" source="foFGb4EaRCftCRZ8EJYG-45" target="foFGb4EaRCftCRZ8EJYG-40">
          <mxGeometry width="50" height="50" relative="1" as="geometry">
            <mxPoint x="630" y="1349" as="sourcePoint" />
            <mxPoint x="680" y="1299" as="targetPoint" />
            <Array as="points">
              <mxPoint x="580" y="1219" />
              <mxPoint x="780" y="1219" />
            </Array>
          </mxGeometry>
        </mxCell>
        <mxCell id="foFGb4EaRCftCRZ8EJYG-53" value="" style="endArrow=classic;html=1;rounded=0;entryX=0.5;entryY=0;entryDx=0;entryDy=0;" edge="1" parent="1" target="foFGb4EaRCftCRZ8EJYG-42">
          <mxGeometry width="50" height="50" relative="1" as="geometry">
            <mxPoint x="580" y="1219" as="sourcePoint" />
            <mxPoint x="390" y="1209" as="targetPoint" />
            <Array as="points">
              <mxPoint x="380" y="1219" />
            </Array>
          </mxGeometry>
        </mxCell>
        <mxCell id="foFGb4EaRCftCRZ8EJYG-54" value="" style="endArrow=classic;html=1;rounded=0;entryX=0.5;entryY=0;entryDx=0;entryDy=0;" edge="1" parent="1" target="foFGb4EaRCftCRZ8EJYG-41">
          <mxGeometry width="50" height="50" relative="1" as="geometry">
            <mxPoint x="580" y="1219" as="sourcePoint" />
            <mxPoint x="600" y="1279" as="targetPoint" />
          </mxGeometry>
        </mxCell>
        <mxCell id="foFGb4EaRCftCRZ8EJYG-55" value="" style="endArrow=classic;html=1;rounded=0;exitX=0.5;exitY=1;exitDx=0;exitDy=0;entryX=0.5;entryY=0;entryDx=0;entryDy=0;" edge="1" parent="1" source="foFGb4EaRCftCRZ8EJYG-40" target="foFGb4EaRCftCRZ8EJYG-50">
          <mxGeometry width="50" height="50" relative="1" as="geometry">
            <mxPoint x="550" y="1329" as="sourcePoint" />
            <mxPoint x="600" y="1279" as="targetPoint" />
          </mxGeometry>
        </mxCell>
        <mxCell id="foFGb4EaRCftCRZ8EJYG-56" value="" style="endArrow=classic;html=1;rounded=0;exitX=0.5;exitY=1;exitDx=0;exitDy=0;entryX=0.5;entryY=0;entryDx=0;entryDy=0;" edge="1" parent="1" source="foFGb4EaRCftCRZ8EJYG-50" target="foFGb4EaRCftCRZ8EJYG-49">
          <mxGeometry width="50" height="50" relative="1" as="geometry">
            <mxPoint x="750" y="1409" as="sourcePoint" />
            <mxPoint x="800" y="1359" as="targetPoint" />
            <Array as="points">
              <mxPoint x="780" y="1339" />
              <mxPoint x="980" y="1339" />
            </Array>
          </mxGeometry>
        </mxCell>
        <mxCell id="foFGb4EaRCftCRZ8EJYG-57" value="" style="endArrow=classic;html=1;rounded=0;entryX=0.5;entryY=0;entryDx=0;entryDy=0;" edge="1" parent="1" target="foFGb4EaRCftCRZ8EJYG-44">
          <mxGeometry width="50" height="50" relative="1" as="geometry">
            <mxPoint x="780" y="1339" as="sourcePoint" />
            <mxPoint x="800" y="1359" as="targetPoint" />
          </mxGeometry>
        </mxCell>
        <mxCell id="foFGb4EaRCftCRZ8EJYG-58" value="" style="endArrow=classic;html=1;rounded=0;entryX=0.5;entryY=0;entryDx=0;entryDy=0;" edge="1" parent="1" target="foFGb4EaRCftCRZ8EJYG-43">
          <mxGeometry width="50" height="50" relative="1" as="geometry">
            <mxPoint x="780" y="1339" as="sourcePoint" />
            <mxPoint x="800" y="1359" as="targetPoint" />
            <Array as="points">
              <mxPoint x="580" y="1339" />
            </Array>
          </mxGeometry>
        </mxCell>
        <mxCell id="foFGb4EaRCftCRZ8EJYG-61" value="" style="group" vertex="1" connectable="0" parent="1">
          <mxGeometry x="885" y="1000" width="30" height="60" as="geometry" />
        </mxCell>
        <mxCell id="foFGb4EaRCftCRZ8EJYG-30" value="X" style="ellipse;whiteSpace=wrap;html=1;aspect=fixed;" vertex="1" parent="foFGb4EaRCftCRZ8EJYG-61">
          <mxGeometry y="30" width="30" height="30" as="geometry" />
        </mxCell>
        <mxCell id="foFGb4EaRCftCRZ8EJYG-31" style="edgeStyle=orthogonalEdgeStyle;rounded=0;orthogonalLoop=1;jettySize=auto;html=1;exitX=0.5;exitY=1;exitDx=0;exitDy=0;entryX=0.5;entryY=0;entryDx=0;entryDy=0;" edge="1" parent="foFGb4EaRCftCRZ8EJYG-61">
          <mxGeometry relative="1" as="geometry">
            <mxPoint x="14.710000000000036" as="sourcePoint" />
            <mxPoint x="14.710000000000036" y="30" as="targetPoint" />
          </mxGeometry>
        </mxCell>
        <mxCell id="foFGb4EaRCftCRZ8EJYG-65" value="X" style="ellipse;whiteSpace=wrap;html=1;aspect=fixed;" vertex="1" parent="1">
          <mxGeometry x="965" y="1430" width="30" height="30" as="geometry" />
        </mxCell>
        <mxCell id="foFGb4EaRCftCRZ8EJYG-66" value="X" style="ellipse;whiteSpace=wrap;html=1;aspect=fixed;" vertex="1" parent="1">
          <mxGeometry x="765" y="1430" width="30" height="30" as="geometry" />
        </mxCell>
        <mxCell id="foFGb4EaRCftCRZ8EJYG-67" value="" style="endArrow=classic;html=1;rounded=0;exitX=0.5;exitY=1;exitDx=0;exitDy=0;entryX=0.5;entryY=0;entryDx=0;entryDy=0;" edge="1" parent="1" source="foFGb4EaRCftCRZ8EJYG-44" target="foFGb4EaRCftCRZ8EJYG-66">
          <mxGeometry width="50" height="50" relative="1" as="geometry">
            <mxPoint x="820" y="1420" as="sourcePoint" />
            <mxPoint x="870" y="1370" as="targetPoint" />
          </mxGeometry>
        </mxCell>
        <mxCell id="foFGb4EaRCftCRZ8EJYG-68" value="" style="endArrow=classic;html=1;rounded=0;exitX=0.5;exitY=1;exitDx=0;exitDy=0;entryX=0.5;entryY=0;entryDx=0;entryDy=0;" edge="1" parent="1" source="foFGb4EaRCftCRZ8EJYG-49" target="foFGb4EaRCftCRZ8EJYG-65">
          <mxGeometry width="50" height="50" relative="1" as="geometry">
            <mxPoint x="820" y="1420" as="sourcePoint" />
            <mxPoint x="870" y="1370" as="targetPoint" />
          </mxGeometry>
        </mxCell>
      </root>
    </mxGraphModel>
  </diagram>
</mxfile>
